<svg xmlns="http://www.w3.org/2000/svg" xmlns:xlink="http://www.w3.org/1999/xlink" width="2000" zoomAndPan="magnify" viewBox="0 0 1500 1499.999933" height="2000" preserveAspectRatio="xMidYMid meet" version="1.0"><defs><clipPath id="49d3aaa19f"><path d="M 118.769531 1159.710938 L 1408 1159.710938 L 1408 1458.875 L 118.769531 1458.875 Z M 118.769531 1159.710938 " clip-rule="nonzero"/></clipPath><clipPath id="39892c3fa7"><path d="M 193.769531 1159.710938 L 1332.855469 1159.710938 C 1374.277344 1159.710938 1407.855469 1193.289062 1407.855469 1234.710938 L 1407.855469 1383.875 C 1407.855469 1425.296875 1374.277344 1458.875 1332.855469 1458.875 L 193.769531 1458.875 C 152.347656 1458.875 118.769531 1425.296875 118.769531 1383.875 L 118.769531 1234.710938 C 118.769531 1193.289062 152.347656 1159.710938 193.769531 1159.710938 Z M 193.769531 1159.710938 " clip-rule="nonzero"/></clipPath><clipPath id="69eb558092"><path d="M 0.769531 0.710938 L 1290 0.710938 L 1290 299.875 L 0.769531 299.875 Z M 0.769531 0.710938 " clip-rule="nonzero"/></clipPath><clipPath id="30478ffd88"><path d="M 75.769531 0.710938 L 1214.855469 0.710938 C 1256.277344 0.710938 1289.855469 34.289062 1289.855469 75.710938 L 1289.855469 224.875 C 1289.855469 266.296875 1256.277344 299.875 1214.855469 299.875 L 75.769531 299.875 C 34.347656 299.875 0.769531 266.296875 0.769531 224.875 L 0.769531 75.710938 C 0.769531 34.289062 34.347656 0.710938 75.769531 0.710938 Z M 75.769531 0.710938 " clip-rule="nonzero"/></clipPath><clipPath id="e8f515d004"><rect x="0" width="1290" y="0" height="300"/></clipPath><clipPath id="42066c83b2"><path d="M 58.820312 150 L 1453 150 L 1453 1470.875 L 58.820312 1470.875 Z M 58.820312 150 " clip-rule="nonzero"/></clipPath><clipPath id="2bd5ac84dc"><path d="M 133.820312 150 L 1377.28125 150 C 1418.703125 150 1452.28125 183.578125 1452.28125 225 L 1452.28125 1395.875 C 1452.28125 1437.296875 1418.703125 1470.875 1377.28125 1470.875 L 133.820312 1470.875 C 92.398438 1470.875 58.820312 1437.296875 58.820312 1395.875 L 58.820312 225 C 58.820312 183.578125 92.398438 150 133.820312 150 Z M 133.820312 150 " clip-rule="nonzero"/></clipPath><clipPath id="5d2a7d3b37"><path d="M 0.820312 0 L 1394 0 L 1394 1320.875 L 0.820312 1320.875 Z M 0.820312 0 " clip-rule="nonzero"/></clipPath><clipPath id="4afcae8ac7"><path d="M 75.820312 0 L 1319.28125 0 C 1360.703125 0 1394.28125 33.578125 1394.28125 75 L 1394.28125 1245.875 C 1394.28125 1287.296875 1360.703125 1320.875 1319.28125 1320.875 L 75.820312 1320.875 C 34.398438 1320.875 0.820312 1287.296875 0.820312 1245.875 L 0.820312 75 C 0.820312 33.578125 34.398438 0 75.820312 0 Z M 75.820312 0 " clip-rule="nonzero"/></clipPath><clipPath id="e5cebb823b"><rect x="0" width="1395" y="0" height="1321"/></clipPath><clipPath id="ea8829c2e4"><path d="M 241.75 62.46875 L 1350 62.46875 L 1350 1413 L 241.75 1413 Z M 241.75 62.46875 " clip-rule="nonzero"/></clipPath><clipPath id="37a862c75b"><path d="M 316.75 62.46875 L 1275 62.46875 C 1316.421875 62.46875 1350 96.046875 1350 137.46875 L 1350 1337.128906 C 1350 1378.550781 1316.421875 1412.128906 1275 1412.128906 L 316.75 1412.128906 C 275.328125 1412.128906 241.75 1378.550781 241.75 1337.128906 L 241.75 137.46875 C 241.75 96.046875 275.328125 62.46875 316.75 62.46875 Z M 316.75 62.46875 " clip-rule="nonzero"/></clipPath><clipPath id="431cc5e9f8"><path d="M 0.75 0.46875 L 1109 0.46875 L 1109 1350.160156 L 0.75 1350.160156 Z M 0.75 0.46875 " clip-rule="nonzero"/></clipPath><clipPath id="3fac62fe4f"><path d="M 75.75 0.46875 L 1034 0.46875 C 1075.421875 0.46875 1109 34.046875 1109 75.46875 L 1109 1275.128906 C 1109 1316.550781 1075.421875 1350.128906 1034 1350.128906 L 75.75 1350.128906 C 34.328125 1350.128906 0.75 1316.550781 0.75 1275.128906 L 0.75 75.46875 C 0.75 34.046875 34.328125 0.46875 75.75 0.46875 Z M 75.75 0.46875 " clip-rule="nonzero"/></clipPath><clipPath id="3f2ffb78c6"><rect x="0" width="1109" y="0" height="1351"/></clipPath><clipPath id="49e7ccd4e6"><path d="M 5 7.242188 L 1499.457031 7.242188 L 1499.457031 1492 L 5 1492 Z M 5 7.242188 " clip-rule="nonzero"/></clipPath></defs><g clip-path="url(#49d3aaa19f)"><g clip-path="url(#39892c3fa7)"><g transform="matrix(1, 0, 0, 1, 118, 1159)"><g clip-path="url(#e8f515d004)"><g clip-path="url(#69eb558092)"><g clip-path="url(#30478ffd88)"><path fill="#9ddbff" d="M 0.769531 0.710938 L 1289.738281 0.710938 L 1289.738281 299.875 L 0.769531 299.875 Z M 0.769531 0.710938 " fill-opacity="1" fill-rule="nonzero"/></g></g></g></g></g></g><g clip-path="url(#42066c83b2)"><g clip-path="url(#2bd5ac84dc)"><g transform="matrix(1, 0, 0, 1, 58, 150)"><g clip-path="url(#e5cebb823b)"><g clip-path="url(#5d2a7d3b37)"><g clip-path="url(#4afcae8ac7)"><path fill="#9ddbff" d="M 0.820312 0 L 1393.929688 0 L 1393.929688 1320.875 L 0.820312 1320.875 Z M 0.820312 0 " fill-opacity="1" fill-rule="nonzero"/></g></g></g></g></g></g><g clip-path="url(#ea8829c2e4)"><g clip-path="url(#37a862c75b)"><g transform="matrix(1, 0, 0, 1, 241, 62)"><g clip-path="url(#3f2ffb78c6)"><g clip-path="url(#431cc5e9f8)"><g clip-path="url(#3fac62fe4f)"><path fill="#9ddbff" d="M 0.75 0.46875 L 1109 0.46875 L 1109 1351.144531 L 0.75 1351.144531 Z M 0.75 0.46875 " fill-opacity="1" fill-rule="nonzero"/></g></g></g></g></g></g><g clip-path="url(#49e7ccd4e6)"><path fill="#303a42" d="M 1469.132812 196.746094 C 1465.878906 192.539062 1388.242188 92.835938 1363.476562 63.148438 C 1362.523438 62.117188 1361.730469 61.164062 1361.015625 60.292969 C 1329.421875 23.378906 1282.503906 -0.0351562 1230.273438 -0.0351562 L 370.566406 -0.0351562 C 332.703125 -0.0351562 297.617188 12.269531 269.117188 33.144531 C 268.878906 33.304688 268.484375 33.542969 267.925781 33.9375 C 251.097656 44.972656 88.523438 151.65625 70.503906 163.882812 C 29.542969 191.503906 5.09375 237.546875 5.09375 286.917969 L 5.09375 1342.820312 C 5.09375 1424.820312 71.535156 1491.257812 153.539062 1491.257812 L 1351.171875 1491.257812 C 1433.171875 1491.257812 1499.695312 1424.738281 1499.695312 1342.742188 L 1499.695312 286.917969 C 1499.695312 253.976562 1489.136719 222.78125 1469.132812 196.746094 Z M 262.050781 171.976562 C 262.050781 112.046875 310.632812 63.46875 370.566406 63.46875 L 1230.273438 63.46875 C 1263.929688 63.46875 1294.09375 78.867188 1313.941406 102.996094 C 1329.5 121.730469 1338.789062 145.785156 1338.789062 171.976562 L 1338.789062 1031.652344 C 1338.789062 1091.585938 1290.207031 1140.164062 1230.273438 1140.164062 L 370.566406 1140.164062 C 310.632812 1140.164062 262.050781 1091.585938 262.050781 1031.652344 Z M 68.597656 1342.820312 L 68.597656 286.917969 C 68.597656 258.660156 82.570312 232.304688 106.066406 216.511719 C 112.894531 211.90625 142.582031 192.378906 176.875 169.835938 C 197.992188 155.945312 198.546875 179.679688 198.546875 179.679688 L 198.546875 1031.652344 C 198.546875 1034.511719 198.546875 1037.371094 198.785156 1040.226562 C 202.59375 1118.8125 178.226562 1196.128906 134.328125 1261.457031 L 80.902344 1340.996094 C 80.902344 1340.996094 80.824219 1340.996094 77.410156 1346.234375 C 73.042969 1353.058594 68.597656 1347.820312 68.597656 1342.898438 Z M 1351.171875 1427.757812 L 153.535156 1427.757812 C 146.472656 1427.757812 139.644531 1426.882812 133.054688 1425.296875 C 119.5625 1421.960938 113.6875 1406.085938 121.386719 1394.574219 L 196.164062 1283.285156 C 232.761719 1228.753906 295.789062 1200.015625 361.359375 1203.511719 C 364.375 1203.667969 367.472656 1203.75 370.566406 1203.75 L 1230.273438 1203.75 C 1230.273438 1203.75 1230.988281 1203.75 1231.304688 1203.75 C 1290.839844 1203.429688 1344.34375 1239.707031 1363.394531 1296.066406 L 1395.863281 1392.113281 C 1399.910156 1404.023438 1394.195312 1417.199219 1382.527344 1421.882812 C 1372.84375 1425.691406 1362.285156 1427.835938 1351.25 1427.835938 Z M 1436.1875 1313.210938 C 1423.25 1274.871094 1414.042969 1235.578125 1408.324219 1195.730469 C 1400.941406 1144.769531 1402.292969 1034.910156 1402.292969 1031.652344 L 1402.292969 214.207031 C 1411.582031 226.113281 1417.851562 234.210938 1418.726562 235.324219 C 1430.15625 250.246094 1436.1875 268.105469 1436.1875 286.917969 Z M 1436.1875 1313.210938 " fill-opacity="1" fill-rule="nonzero"/></g><path fill="#303a42" d="M 920.605469 442.898438 C 945.769531 460.285156 964.976562 483.78125 978.234375 513.386719 C 991.492188 543.074219 998.082031 576.175781 998.082031 612.691406 C 998.082031 649.207031 991.414062 682.386719 978.234375 711.996094 C 964.976562 741.683594 945.769531 765.179688 920.605469 782.484375 C 895.441406 799.789062 865.273438 808.519531 830.1875 808.519531 L 696.429688 808.519531 C 686.746094 808.519531 678.570312 805.265625 672.058594 798.757812 C 665.550781 792.246094 662.296875 784.148438 662.296875 774.386719 L 662.296875 450.917969 C 662.296875 441.234375 665.550781 433.136719 672.058594 426.546875 C 678.570312 420.039062 686.664062 416.785156 696.429688 416.785156 L 830.1875 416.785156 C 865.273438 416.785156 895.359375 425.4375 920.605469 442.820312 Z M 900.203125 707.074219 C 917.03125 682.308594 925.367188 650.792969 925.367188 612.769531 C 925.367188 574.746094 916.871094 543.3125 899.882812 518.46875 C 882.898438 493.703125 857.8125 481.238281 824.628906 481.238281 L 732.308594 481.238281 L 732.308594 744.300781 L 824.628906 744.300781 C 858.210938 744.300781 883.375 731.917969 900.203125 707.074219 Z M 900.203125 707.074219 " fill-opacity="1" fill-rule="nonzero"/></svg>